<svg width="11" height="14" viewBox="0 0 11 14" fill="none" xmlns="http://www.w3.org/2000/svg">
<path d="M3.24031 9.69881C3.06155 9.69881 2.91566 9.54753 2.91566 9.36133C2.91566 9.17513 3.06052 9.02384 3.24031 9.02384H5.34641C5.52517 9.02384 5.67106 9.17513 5.67106 9.36133C5.67106 9.54753 5.5262 9.69881 5.34641 9.69881H3.24031ZM3.24031 4.97192C3.06155 4.97192 2.91669 4.82275 2.91669 4.63867C2.91669 4.45459 3.06155 4.30542 3.24031 4.30542H7.51518C7.69394 4.30542 7.8388 4.45459 7.8388 4.63867C7.8388 4.82275 7.69394 4.97192 7.51518 4.97192H3.24031ZM5.84057 12.8335C6.01933 12.8335 6.16419 12.9827 6.16419 13.1667C6.16419 13.3508 6.01933 13.5 5.84057 13.5H0.753059C0.545531 13.5 0.357523 13.4132 0.220884 13.2725C0.084244 13.1318 0 12.9382 0 12.7245V1.27547C0 1.06177 0.084244 0.868164 0.220884 0.727458C0.357523 0.586751 0.545531 0.5 0.753059 0.5H10.0014C10.2089 0.5 10.3969 0.586751 10.5336 0.727458C10.6702 0.868164 10.7545 1.06177 10.7545 1.27547V8.18066C10.7545 8.36475 10.6096 8.51392 10.4308 8.51392C10.2521 8.51392 10.1072 8.36475 10.1072 8.18066V1.27547C10.1072 1.24585 10.0949 1.21834 10.0764 1.19824C10.0569 1.17814 10.0302 1.1665 10.0014 1.1665H0.753059C0.724293 1.1665 0.697581 1.1792 0.678061 1.19824C0.659568 1.2194 0.64724 1.24585 0.64724 1.27547V12.7235C0.64724 12.7531 0.659568 12.7806 0.678061 12.8007C0.697581 12.8208 0.724293 12.8324 0.753059 12.8324H5.84057V12.8335ZM8.56309 9.35498C8.56309 9.17196 8.70795 9.02279 8.88568 9.02279C9.06342 9.02279 9.20827 9.17196 9.20827 9.35498L9.20416 10.8742L10.6774 10.8784C10.8551 10.8784 11 11.0276 11 11.2106C11 11.3936 10.8551 11.5428 10.6774 11.5428L9.20314 11.5386L9.19903 13.0557C9.19903 13.2387 9.05417 13.3879 8.87644 13.3879C8.6987 13.3879 8.55384 13.2387 8.55384 13.0557L8.55795 11.5375L7.08471 11.5333C6.90698 11.5333 6.76212 11.3841 6.76212 11.2011C6.76212 11.0181 6.90698 10.8689 7.08471 10.8689L8.56001 10.8731L8.56309 9.35498ZM3.24031 7.33325C3.06155 7.33325 2.91669 7.18408 2.91669 7C2.91669 6.81592 3.06155 6.66675 3.24031 6.66675H7.51518C7.69394 6.66675 7.8388 6.81592 7.8388 7C7.8388 7.18408 7.69394 7.33325 7.51518 7.33325H3.24031Z" fill="white"/>
</svg>
