<svg width="18" height="18" viewBox="0 0 18 18" fill="none" xmlns="http://www.w3.org/2000/svg">
<path d="M15.2641 4.56287C15.6032 5.39051 16.0141 6.31189 16.2211 7.13367C16.4068 7.86253 16.483 8.61489 16.4471 9.36609C16.4121 10.1165 16.2636 10.8573 16.0068 11.5634C15.7531 12.2594 15.3948 12.9129 14.9442 13.5013C14.4952 14.0832 13.9597 14.593 13.3561 15.0131C13.1319 15.1713 12.8997 15.318 12.6604 15.4525C12.4217 15.5873 12.177 15.7089 11.9266 15.8173C11.3917 16.0544 10.8312 16.2294 10.2563 16.3388C9.69213 16.4462 9.11717 16.4865 8.54348 16.4589L8.36589 16.4471L7.9608 17.953L8.2382 17.975C8.96964 18.0308 9.7052 17.9959 10.428 17.871C11.1614 17.7415 11.8765 17.5242 12.5577 17.2235C12.8453 17.0966 13.1306 16.9535 13.4133 16.7943C13.6878 16.639 13.9637 16.4647 14.2382 16.2743C15.7224 15.2434 16.85 13.7788 17.4657 12.0819C18.0844 10.3711 18.1714 8.51375 17.7152 6.75281C17.4217 5.9076 17.1017 4.79139 16.4955 3.93738C16.0949 3.37195 14.9207 3.7074 15.27 4.56287H15.2641ZM8.21912 6.55359C8.21454 6.44812 8.23141 6.34281 8.26869 6.24402C8.30598 6.14522 8.36292 6.05498 8.43608 5.97873C8.50924 5.90248 8.59711 5.8418 8.6944 5.80035C8.79168 5.75889 8.89636 5.73752 9.00214 5.73752C9.10792 5.73752 9.21261 5.75889 9.30989 5.80035C9.40717 5.8418 9.49504 5.90248 9.5682 5.97873C9.64137 6.05498 9.69831 6.14522 9.73559 6.24402C9.77288 6.34281 9.78974 6.44812 9.78517 6.55359V8.21766H11.4481C11.6559 8.21766 11.8553 8.30007 12.0023 8.44676C12.1493 8.59346 12.2318 8.79242 12.2318 8.99988C12.2318 9.20734 12.1493 9.4063 12.0023 9.553C11.8553 9.6997 11.6559 9.78211 11.4481 9.78211H9.7837V11.4462C9.78828 11.5516 9.77141 11.657 9.73413 11.7557C9.69684 11.8545 9.6399 11.9448 9.56674 12.021C9.49358 12.0973 9.40571 12.158 9.30842 12.1994C9.21114 12.2409 9.10645 12.2622 9.00068 12.2622C8.8949 12.2622 8.79021 12.2409 8.69293 12.1994C8.59564 12.158 8.50777 12.0973 8.43461 12.021C8.36145 11.9448 8.30451 11.8545 8.26723 11.7557C8.22994 11.657 8.21308 11.5516 8.21765 11.4462V9.78211H6.54886C6.341 9.78211 6.14165 9.6997 5.99467 9.553C5.84768 9.4063 5.76511 9.20734 5.76511 8.99988C5.76511 8.79242 5.84768 8.59346 5.99467 8.44676C6.14165 8.30007 6.341 8.21766 6.54886 8.21766H8.21912V6.55359ZM3.55914 16.1659C4.07952 16.5695 4.64373 16.9135 5.24114 17.1913L5.48918 17.307L5.8928 15.8055L5.72401 15.725C5.28904 15.5091 4.87698 15.2499 4.49407 14.9515C4.1064 14.6494 3.74994 14.3093 3.42998 13.9364L3.30523 13.7899L1.95933 14.5648L2.13252 14.7743C2.55505 15.2885 3.03352 15.7543 3.55914 16.163V16.1659ZM0.0836009 10.1849C0.177243 10.8436 0.346152 11.4894 0.587026 12.1097L0.682427 12.3617L2.02832 11.5868L1.96374 11.4052C1.79823 10.9437 1.68021 10.4666 1.61149 9.98133C1.54309 9.4962 1.52489 9.00533 1.55718 8.51648L1.56746 8.32752L0.0601175 7.93201L0.0351664 8.20301C-0.0251495 8.86331 -0.00889714 9.52836 0.0836009 10.1849ZM1.22988 4.5409C1.09485 4.76795 0.973033 4.99646 0.861487 5.22937L0.742603 5.4784L2.24701 5.88123L2.33213 5.71277C2.41726 5.54725 2.50679 5.38611 2.60072 5.23084C2.69466 5.07557 2.79887 4.91883 2.90894 4.76648C3.08731 4.5162 3.27836 4.27516 3.48135 4.04432C3.67835 3.81824 3.88808 3.60353 4.10953 3.40125L4.24603 3.27674L3.46667 1.92762L3.25532 2.11072C2.95798 2.36933 2.67664 2.64572 2.41286 2.93836C2.14332 3.23684 1.89096 3.55033 1.65699 3.87732C1.50288 4.09412 1.36344 4.31678 1.22842 4.5365L1.22988 4.5409ZM7.40307 0.114139C6.89366 0.19931 6.39375 0.333732 5.91041 0.515507L5.65503 0.610722L6.43292 1.95545L6.61198 1.89246C7.35285 1.6363 8.13396 1.51572 8.91775 1.5365C9.09534 1.5365 9.28174 1.55262 9.47401 1.57459C9.66628 1.59656 9.84241 1.62293 10.0229 1.65955C10.2035 1.69617 10.3972 1.74158 10.5807 1.79578C10.7641 1.84998 10.9476 1.91297 11.1369 1.98621C11.2313 2.02397 11.3323 2.04266 11.434 2.0412C11.5357 2.03974 11.6361 2.01816 11.7294 1.97772C11.8227 1.93727 11.907 1.87875 11.9775 1.80556C12.048 1.73237 12.1032 1.64595 12.14 1.5513C12.1768 1.45666 12.1944 1.35568 12.1918 1.2542C12.1892 1.15272 12.1665 1.05276 12.1249 0.960103C12.0834 0.867448 12.0238 0.78394 11.9497 0.714414C11.8756 0.644888 11.7884 0.590723 11.6932 0.555057C11.4701 0.468632 11.2411 0.390995 11.0078 0.322147C10.7744 0.2533 10.5498 0.1991 10.3253 0.15369C10.1007 0.10828 9.8747 0.0731238 9.65161 0.0482215C9.42851 0.0233191 9.19221 0.00720586 8.95298 -0.00011836C8.43388 -0.0110904 7.91492 0.0271673 7.40307 0.114139Z" fill="#594D61"/>
</svg>
