<svg width="18" height="20" viewBox="0 0 18 20" fill="none" xmlns="http://www.w3.org/2000/svg">
<path d="M5.17865 0.5H12.8214C14.2435 0.5 15.5374 1.1123 16.4762 2.0957C17.4164 3.08065 18 4.43978 18 5.93343V14.0681C18 15.5587 17.4164 16.9163 16.4791 17.9012L16.4762 17.9043C15.5359 18.8892 14.242 19.5 12.8228 19.5H5.17865C3.75504 19.5 2.45964 18.8877 1.52088 17.9043L1.48551 17.8626C0.568855 16.8822 0 15.5401 0 14.0666V5.93343C0 4.43823 0.582119 3.08065 1.52088 2.0957C2.45964 1.11076 3.75356 0.5 5.17865 0.5ZM13.486 5.29639L13.4963 5.3134H16.6795C16.5513 4.43514 16.152 3.64657 15.5772 3.04199C14.8698 2.2998 13.8942 1.83903 12.8214 1.83903H11.5142L13.486 5.29639ZM12.0138 5.3134L10.0316 1.83903H5.68413L7.68986 5.3134H12.0138ZM6.20583 5.3134L4.26642 1.9519C3.55756 2.13127 2.92238 2.51628 2.42279 3.04199C1.84804 3.64502 1.45014 4.43514 1.32045 5.3134H6.20583ZM16.7238 6.65243H1.27624V14.0681C1.27624 15.1768 1.70215 16.1864 2.39037 16.9255L2.42279 16.958C3.13018 17.7002 4.10725 18.1625 5.17865 18.1625H12.8214C13.8942 18.1625 14.8698 17.7017 15.5757 16.9611L15.5787 16.958C16.2846 16.2174 16.7238 15.1938 16.7238 14.0681V6.65243ZM7.5086 8.9965L11.4626 11.6947C11.526 11.738 11.5834 11.7936 11.6291 11.8617C11.8089 12.1353 11.7426 12.5111 11.4817 12.6997L7.54397 15.1381C7.44523 15.2231 7.31849 15.2742 7.17848 15.2742C6.86016 15.2742 6.60226 15.0036 6.60226 14.6696V9.49129H6.60521C6.60521 9.37223 6.6391 9.25163 6.70837 9.14648C6.89111 8.8728 7.24922 8.80632 7.5086 8.9965Z" fill="#594D61"/>
</svg>
